<?xml version="1.0" encoding="UTF-8" standalone="no"?>
<!-- Created with Inkscape (http://www.inkscape.org/) -->

<svg
   xmlns:dc="http://purl.org/dc/elements/1.1/"
   xmlns:cc="http://creativecommons.org/ns#"
   xmlns:rdf="http://www.w3.org/1999/02/22-rdf-syntax-ns#"
   xmlns:svg="http://www.w3.org/2000/svg"
   xmlns="http://www.w3.org/2000/svg"
   xmlns:sodipodi="http://sodipodi.sourceforge.net/DTD/sodipodi-0.dtd"
   xmlns:inkscape="http://www.inkscape.org/namespaces/inkscape"
   width="200"
   height="400"
   viewBox="0 0 52.916665 105.83334"
   version="1.1"
   id="svg7692"
   inkscape:version="0.92.5 (2060ec1f9f, 2020-04-08)"
   sodipodi:docname="Mapa AA.svg">
  <defs
     id="defs7686" />
  <sodipodi:namedview
     id="base"
     pagecolor="#ffffff"
     bordercolor="#666666"
     borderopacity="1.0"
     inkscape:pageopacity="0.0"
     inkscape:pageshadow="2"
     inkscape:zoom="1.4"
     inkscape:cx="-230.88143"
     inkscape:cy="259.78737"
     inkscape:document-units="mm"
     inkscape:current-layer="layer1"
     showgrid="false"
     inkscape:window-width="1920"
     inkscape:window-height="1017"
     inkscape:window-x="-8"
     inkscape:window-y="-8"
     inkscape:window-maximized="1"
     units="px" />
  <metadata
     id="metadata7689">
    <rdf:RDF>
      <cc:Work
         rdf:about="">
        <dc:format>image/svg+xml</dc:format>
        <dc:type
           rdf:resource="http://purl.org/dc/dcmitype/StillImage" />
        <dc:title />
      </cc:Work>
    </rdf:RDF>
  </metadata>
  <g
     inkscape:label="Layer 1"
     inkscape:groupmode="layer"
     id="layer1"
     transform="translate(0,-191.16665)">
    <path
       style="fill:#4a588a;fill-opacity:1;stroke-width:0.10702891"
       d="m 26.980909,290.50841 c -1.495994,-0.72962 -2.752782,-2.57197 -4.603227,-2.09316 -1.070145,0.2442 -1.907633,-0.50106 -3.001641,-0.15472 -1.014534,-0.2993 -2.578309,-1.0236 -3.110018,0.13311 -1.571118,-0.29836 -2.989345,1.19227 -4.159244,1.27977 -1.472086,-0.76942 0.952398,-2.47782 0.72821,-3.7623 0.828834,-1.13621 0.248864,-2.62362 1.316184,-3.7615 0.30425,-1.11272 0.556603,-2.38793 -0.06695,-3.4369 0.279142,-1.02577 0.518676,-2.06373 0.237423,-3.08951 0.373595,-1.42787 0.176278,-3.03906 -1.202267,-3.32986 0.928518,-1.78237 1.740197,-3.79498 1.647565,-5.8496 0.09718,-1.65286 -1.075963,-2.91042 -1.765228,-4.18262 0.84344,0.18038 2.464724,1.79391 2.514197,-0.19826 0.959043,-0.48305 1.512852,-0.82574 1.231074,-1.91181 0.808847,-0.88962 2.738885,-2.11077 1.681433,-3.02128 1.157914,-0.5607 2.469293,-1.95086 3.731143,-1.01986 0.631374,0.26751 1.115997,0.6791 1.65011,1.0738 0.713784,-0.75106 -1.295577,-0.83221 -0.33314,-1.58149 -2.120462,-0.25081 -1.052584,-2.70328 0.444917,-2.97448 1.075522,-0.28194 1.695191,0.82878 2.119018,1.27121 1.299808,-1.37789 1.603914,1.97621 3.10739,0.73068 0.472558,-1.09279 1.566247,0.44541 2.311115,-0.79293 0.746528,-0.0424 0.507451,-1.61347 1.41827,-0.6497 1.34698,0.49668 0.622009,2.68839 1.967183,3.21569 0.875787,-1.14434 2.843414,-0.6601 2.012583,1.00094 0.416063,0.58504 -1.459144,1.69832 -0.297616,2.46027 -0.530667,1.22522 -1.243989,2.60177 -0.497987,3.6392 0.688132,1.33646 1.844479,2.36724 2.316287,3.8164 0.530781,1.39893 2.295265,-1.06014 2.728849,0.37337 -0.876879,0.88053 -0.310033,4.30665 -2.394164,3.11839 -0.344616,1.09707 -2.570971,0.1803 -2.161257,1.90217 -0.204537,1.81025 -2.074317,2.59826 -2.593053,4.2259 -0.408181,1.47208 -1.48635,2.75076 -0.269191,4.14874 0.411426,1.7263 0.356412,3.48606 0.861865,5.19527 0.151189,1.00215 -1.951132,0.075 -2.541687,1.08022 -1.33327,1.14708 -2.854309,2.07871 -4.209616,3.19635 -0.261149,0.13131 -0.568358,0.0271 -0.818526,-0.0515 z"
       id="AAS"
       inkscape:connector-curvature="0" />
    <path
       style="fill:#ecc846;fill-opacity:1;stroke-width:0.02181231"
       d="m 8.46737,263.85571 c -0.6415967,-0.22082 0.3647331,-1.01649 0.3100787,-1.48256 0.1447967,-0.82635 -0.1412838,-1.64024 -0.4896296,-2.37606 -0.2364347,-0.37192 -0.8868429,-0.9781 -0.1037391,-1.06808 0.4672791,0.11979 1.2206785,-0.49086 1.42871,0.0102 -0.1594759,0.33062 0.519188,0.60245 0.65173,0.2245 0.22087,-0.098 0.412729,-0.49072 0.574639,-0.3109 -0.274937,-0.48045 0.319054,-0.76291 0.291271,-1.20503 0.344102,-0.40174 0.535692,-0.73866 0.571181,-1.2918 0.05346,-0.4566 0.237429,-0.89314 -0.0225,-1.19305 0.05408,-0.34994 -0.01316,-0.98532 -0.222605,-0.31591 -0.0044,0.69786 -0.845118,0.93049 -1.017395,1.5907 -0.397659,0.55622 0.06123,1.33562 -0.4515311,1.83651 -0.4491029,0.39819 -1.2039315,0.53819 -1.7925039,0.43988 -0.6583687,-0.40072 -1.0609556,0.66286 -1.64785,0.2371 -0.3406642,-0.25504 -0.76386,-0.50578 -1.02108,-0.1554 -0.4986076,-0.0355 -1.3086745,-0.31246 -0.77954,-0.92619 -0.090067,-0.42999 -0.6232712,-0.87153 -0.12868,-1.33591 0.440782,-0.72486 0.6533207,-1.5477 0.9573525,-2.33414 0.070463,-0.60073 -0.2205926,-1.22645 0.042323,-1.82105 -0.051375,-0.45005 0.8091177,-0.39508 0.956465,-0.0866 -0.00623,0.29253 0.2162376,0.17528 0.3003139,0.47889 0.3146532,0.1032 0.3090116,0.10984 0.6472617,0.0734 0.4671065,-0.0209 0.4176328,0.0158 0.9697744,-0.0153 0.2900717,0.31391 0.080108,0.9225 -0.3423565,1.03721 0.3092585,-0.0573 0.7535625,0.05 0.969364,0.0796 0.4503296,0.11838 0.1406835,0.0909 0.6600012,0.21228 0.2607678,-0.0186 0.4920178,0.0562 0.7161198,0.0102 -0.489492,-0.68042 0.147392,-0.54196 0.339306,-0.40839 0.841417,-0.0262 -0.350904,-1.01467 0.513834,-0.95254 0.28132,0.0654 0,0 0.58328,0.002 0.565172,0.11302 0.504911,0.26303 0.693807,-0.11394 0.479423,-0.42627 0.229866,0.006 0.424434,0.17984 -0.08778,-0.73633 1.125842,-0.0322 0.474823,0.35087 0.02931,0.32334 -0.518382,0.53409 0.06629,0.61523 -0.06599,0.24498 -0.739342,0.23059 -0.521229,0.69561 -0.332218,0.55811 -0.586036,0.95765 -1.114446,1.41094 0.567844,0.28251 0.491987,1.00318 0.770262,1.47168 0.489977,0.27792 1.252272,-0.37183 1.631892,0.26604 0.393457,0.0645 0.842855,0.0694 0.758682,-0.51228 0.220666,-0.40685 0.618411,-0.93719 0.690598,-1.32563 0.375889,0.19369 0.979443,0.27139 1.42436,0.0746 0.302239,-0.30278 0.355637,0.10276 0.02611,0.5201 -0.06977,0.42182 0.110935,0.46891 0.559775,0.72692 0.6121,-0.0395 1.241531,-0.0192 0.936705,0.59472 -0.445885,0.23144 0.246577,0.69964 -0.36852,0.84182 -0.307814,0.47622 -0.876766,0.60457 -1.194676,1.08557 -0.448017,0.3243 -0.962269,0.73197 -0.510605,1.31629 0.269017,0.67763 -0.605709,0.31164 -0.774028,0.80445 -0.229972,0.45953 -0.856963,0.25335 -0.855633,-0.21001 -0.238711,0.25072 -0.86177,-0.10331 -0.401774,0.31328 0.227644,0.17549 0.683323,0.435 0.11243,0.55 -0.651744,0.35205 -1.090385,-0.38747 -1.65608,-0.52089 -0.547189,0.0556 -0.552824,0.76518 -1.142063,0.69694 -0.33066,0.32621 -0.798357,0.62879 -1.287168,0.6909 -0.247521,0.22827 -0.7152224,-0.15956 -1.0301469,0.18005 -0.3818224,-0.07 -0.675201,0.0676 -0.9171062,0.35825 -0.035606,0.1 -0.2493702,-0.10864 -0.2602844,-0.0149 z"
       id="AAL"
       inkscape:connector-curvature="0"
       sodipodi:nodetypes="ccccccccccccccccccccccccccccccccccccccccccccccccccccccccccc" />
    <path
       style="fill:#cd4c46;fill-opacity:1;stroke-width:0.12202573"
       d="m 14.356799,257.68561 c -0.543037,-0.68913 -1.919517,0.53714 -1.88539,-0.9469 -1.236104,-0.82377 0.319242,-1.48332 0.52252,-2.4667 0.171459,-0.43153 0.872412,-1.60392 0.256822,-1.68537 -0.38295,0.86484 -0.290688,-0.54655 -0.754614,0.33569 -0.745785,-0.0192 -1.586745,-0.4349 -1.193317,0.6634 -0.391111,0.49235 -1.3370673,-0.33862 -0.808275,0.58251 -0.6163927,0.24643 -1.6083028,-0.43776 -2.345485,-0.30213 0.4593201,-0.58548 0.6438868,-1.03336 -0.20874,-1.0133 -0.5751628,0.01 -1.239079,0.22048 -1.434395,-0.71395 -1.7231525,0.10963 -0.1953716,-1.78115 0.072515,-2.68125 0.7069578,-1.187 -0.2068838,-2.57548 -0.5778606,-3.21925 0.9490908,0.15098 1.9288147,-0.57993 2.6332606,-1.55445 0.9505547,-1.14531 1.973541,-2.09037 2.037598,-3.61575 0.375286,-1.70002 1.232412,-3.24594 1.754717,-4.89652 0.702604,-0.26234 0.203488,-2.65662 1.386479,-1.59115 0.938289,0.40303 1.61734,-0.63155 2.698259,0.13042 0.387677,1.39519 1.3761,-1.12312 1.5901,0.34745 -0.269215,1.83952 1.027081,-0.49128 1.609936,-0.18245 0.588948,-0.40646 0.669443,1.35569 0.54535,1.5051 0.618339,-0.0723 1.107951,-1.0436 1.67831,-0.8098 -0.821557,-1.23963 0.898418,-1.70956 1.54461,-1.9758 0.241855,0.67509 0.381776,1.55821 0.752746,2.24845 -0.708005,0.76592 0.86949,-0.12293 1.117875,0.77394 1.196654,0.29219 2.591229,1.67376 0.972889,2.556 -0.829245,0.30012 -0.512466,0.61581 0.08358,0.50539 -0.13422,1.60654 1.764183,1.53701 2.147509,3.03481 0.320958,0.43725 0.721366,-0.53669 1.080666,-0.60944 -0.01026,-0.97487 1.03804,-0.91433 1.419744,-0.53526 0.631605,-0.93209 1.80749,-0.64503 1.81062,0.5031 0.65301,0.86951 1.537171,1.28842 2.04017,2.0509 1.785025,0.33827 -0.10649,2.46235 1.28396,3.26731 0.99585,0.60369 -0.113639,2.34759 1.60155,2.24649 0.877096,0.14551 -0.326491,1.90728 1.09434,1.19155 1.848021,-0.498 2.325585,2.28451 0.967975,3.22984 -0.239724,1.18774 -0.84991,2.10968 -1.946875,2.74681 -0.409632,0.96624 -1.568968,0.86845 -1.038012,-0.31546 0.168758,-1.05901 -1.11981,-0.74953 -1.466328,-0.19014 -0.924512,0.91506 -1.435519,-0.76917 -1.656747,-1.43173 -0.729339,-0.44575 0.01985,-1.62906 -1.238773,-1.78317 -0.38879,-0.11916 -0.203592,1.12595 -1.069997,0.81986 -0.379743,1.10447 -1.582131,0.35228 -1.934273,0.46084 -0.585419,1.13461 -2.483335,0.55988 -2.5845,-0.6937 -0.484919,-0.18124 -1.723693,1.07598 -1.422305,-0.2332 -0.445812,-0.82761 -0.955817,-0.48846 -1.096115,0.0784 -0.521042,-0.44525 0.185502,-0.99834 -0.61326,-0.7279 -0.956876,0.0874 -2.318166,2.2113 -0.61236,2.3153 0.928828,0.25618 -0.240442,1.03899 0.86937,1.2364 0.398273,1.37008 -1.078246,0.76467 -1.451941,0.0712 -0.740848,-0.0469 -1.000632,-0.86943 -1.790008,-0.37054 -0.61099,-0.47499 -1.274984,1.03066 -2.015362,0.70403 -0.595283,1.04227 -2.160646,0.29889 -1.554899,-0.82322 -0.452037,0.61137 -0.965701,0.49889 -1.42436,-0.0746 -0.381415,0.59016 -0.416293,2.33631 -1.44928,1.83791 z"
       id="AAT"
       inkscape:connector-curvature="0" />
    <path
       style="fill:#71afe2;fill-opacity:1;stroke-width:0.99999988"
       d="m 28.326499,243.22021 c 0.217049,-1.0983 -1.121754,-2.01639 -1.868393,-2.10926 0.04862,-0.84568 0.0036,-1.41911 -0.686666,-1.28549 -0.886688,-0.45493 2.45792,-1.61666 0.740069,-2.33235 -0.802496,-0.41658 -1.510878,-1.4161 -2.479889,-1.09172 0.205148,-0.85204 -0.622079,-1.72476 -0.528691,-2.65908 -0.382803,0.1271 -0.657511,0.54002 -1.037705,0.37707 -1.208825,0.19894 0.341651,2.15091 -0.983694,1.61658 -0.364885,0.76554 -1.850106,1.15314 -1.226757,0.0179 -0.253073,-1.53788 -1.630056,-0.0148 -2.067918,0.31872 -0.325409,-0.42162 -0.06682,-2.16024 -0.789262,-0.91355 -0.769032,0.5967 -1.604131,-1.4041 -2.537054,-0.4987 -0.956684,0.64521 -2.340807,-0.57949 -1.379453,-1.68631 0.137644,-0.92674 -0.950055,-1.58542 -0.117554,-2.56893 0.728499,-1.54672 0.965739,-3.27836 1.505366,-4.87399 0.820806,0.15323 2.185859,2.90456 2.279332,0.78488 1.279942,-0.60918 0.125211,2.26665 1.497832,1.0741 0.945945,0.12091 2.900018,0.76975 2.640587,-0.84355 -0.447165,-0.88825 1.75112,-0.50511 0.601455,-1.35198 -0.460247,-0.72519 -0.188677,-1.2242 0.298728,-1.50113 -0.663083,-0.40275 -0.675718,-1.44201 -0.91376,-2.10059 1.368357,-0.22065 0.497634,-2.13246 1.395251,-2.45195 0.499993,0.51791 0.912864,-0.23868 1.505718,0.19246 -0.246677,-0.6512 -0.543598,-2.38654 0.552637,-2.33394 0.859724,0.50959 1.589624,0.23127 2.161871,-0.56367 0.800018,-0.35415 0.06717,0.66841 0.96422,0.63105 0.390802,0.97886 1.189834,-0.59084 1.431768,0.64517 1.262146,-0.31374 0.687686,0.75238 0.772116,1.39373 0.560602,0.014 1.086255,-0.11419 1.221846,0.58825 0.416714,-1.50357 1.815251,-0.1717 2.196521,0.34549 0.645937,-0.61667 0.352236,-1.08387 0.197249,-1.64069 0.448063,-0.0994 1.645982,-0.34498 1.21323,-1.25676 -1.573215,-0.84713 0.990987,-0.65233 1.4458,-0.87154 1.331046,-0.85189 0.50568,1.26562 1.08394,1.6621 0.591558,-0.11252 0.62258,-1.2842 1.614238,-0.89289 0.67941,-0.18086 0.746228,-1.91544 1.651622,-0.80051 0.605164,1.09425 1.768353,2.2188 1.64372,3.3705 -0.59009,1.18143 0.273431,2.38603 0.17484,3.56699 -0.264013,0.67547 -0.748162,1.28805 0.02271,1.73814 -0.08328,1.18983 -1.06414,2.40193 0.289388,3.38092 0.0716,0.96971 -1.126752,1.04154 -1.207023,1.94399 -1.348201,-0.0792 -2.82706,1.40105 -1.5172,2.41786 0.887155,0.29072 1.946155,1.68594 1.461401,2.68719 -0.0948,1.23517 -0.345908,2.52922 -1.383236,3.23633 0.252914,1.40054 -0.444119,3.17843 -2.139635,2.77438 -1.443751,-0.28247 -2.796356,0.5089 -4.23224,0.13 -1.079242,-0.48325 -2.177079,-0.18243 -2.999845,0.44385 -0.741274,-1.10264 -1.003677,0.84514 -1.710701,1.06568 -0.04787,0.14972 -0.891831,0.77581 -0.756774,0.22527 z"
       id="AAC"
       inkscape:connector-curvature="0" />
    <path
       style="fill:#8d6fd1;fill-opacity:1;stroke:none;stroke-width:0.1322917;stroke-miterlimit:4;stroke-dasharray:none"
       d="m 33.109999,219.94841 c -0.500383,-1.14502 -1.468691,-0.77034 -1.941101,-0.16614 -0.03563,-0.92577 -2.017589,-0.22259 -1.24085,-1.33766 0.402961,-0.89935 -1.117097,-0.39968 -1.236967,-1.14345 -0.479858,0.74213 -1.232708,-0.43997 -1.637233,-0.56238 0.1049,-0.91773 -1.019213,1.49644 -1.779129,0.58253 -0.752547,-0.0127 -0.802258,-1.03831 -1.23736,-0.10011 -1.174798,-0.25064 -1.355974,-0.73337 -1.659137,0.263 -0.705836,0.19117 -1.300731,-0.10967 -1.689422,-0.63531 -1.094848,-0.70706 0.292918,-1.55328 -0.285451,-2.50278 0.05699,-0.8057 2.147558,-2.2629 0.27757,-2.1563 -1.073978,0.47952 -1.30698,-0.53398 -0.375942,-1.14946 -0.07204,-0.65217 1.686826,-0.38006 0.795931,-1.06359 -0.687935,0.46009 -0.69131,-0.58622 -1.310037,0.15492 -0.671471,-0.41034 -1.754906,0.90769 -2.396251,0.15406 -0.353762,-0.71845 0.728413,-0.94927 -0.435566,-1.20027 -0.594738,-0.79936 -2.349695,-0.58761 -2.107077,-2.10485 -0.122418,-1.44006 -0.703799,-2.62155 -1.166427,-3.93676 -0.06712,-1.50855 0.311159,-2.9286 1.783484,-3.57093 0.236535,-0.89237 1.410395,-0.97993 1.665916,-1.92358 1.259599,-0.15755 2.00879,-0.90324 3.427251,-0.65621 0.986534,-0.0491 1.765425,-1.29759 2.718328,-1.18622 0.01382,0.90451 0.03126,1.62553 1.10985,1.2763 1.315059,1.30584 -1.012778,1.73968 -1.28364,2.9399 -0.435809,0.6731 1.109382,0.87647 0.563975,1.79384 1.36328,0.57494 2.356334,-0.98845 3.202535,-1.52064 0.456947,-1.26114 0.674153,0.53016 0.675714,0.80437 0.832571,-0.71794 2.253662,-1.14793 3.260312,-0.45558 1.079799,-0.25779 0.484564,0.54027 0.456991,0.8492 0.916577,-0.15194 1.918917,-1.29742 2.411633,0.23471 0.376995,-0.88582 3.030959,-0.21522 3.07891,-1.8662 -0.580149,-1.57492 1.419753,-1.33224 1.88394,-0.6043 0.637055,0.21964 1.120973,-0.9304 1.630217,0.0547 0.855742,0.32904 1.575772,-0.0106 1.657559,-0.77006 0.878282,0.18401 1.122242,1.47873 2.300327,0.84851 0.708883,-0.94492 1.757187,0.14032 1.17472,1.07254 1.437134,0.49416 -0.578557,2.50719 0.293472,3.61495 0.723001,1.00685 1.584438,-0.57783 2.636068,0.16369 0.846752,0.38927 2.918882,1.43824 1.838402,2.50515 -0.54286,0.83444 -1.349551,1.87736 -1.263218,2.76256 -0.247514,0.6159 -1.304201,-0.13181 -0.850567,0.65705 -0.884568,0.61466 -1.134264,1.72911 -2.287863,1.9349 -0.548149,0.55315 -1.979072,0.016 -2.012638,1.33579 -0.982444,0.62031 -0.719764,1.29494 -1.134382,2.1712 -0.632794,1.74917 -3.001934,-0.4987 -3.150739,1.53069 -0.781498,0.27706 -1.52367,0.14054 -1.746146,1.1183 -1.506204,0.33778 -0.06739,-2.82131 -1.33184,-1.66325 -0.545687,0.15952 -2.803315,-0.12307 -1.27057,0.65175 0.139441,0.82147 -0.824824,1.27813 -0.775832,2.13331 -0.517762,-0.28806 -0.616497,1.60316 -1.23772,0.6681 z"
       id="AAD"
       inkscape:connector-curvature="0" />
    <path
       style="fill:#73b761;fill-opacity:1;stroke:none;stroke-width:0.1322917;stroke-miterlimit:4;stroke-dasharray:none"
       d="m 17.702949,227.80601 c -0.190261,-0.40501 0.282934,-1.74393 -0.51041,-1.3406 -0.09223,0.44749 -0.0375,1.292 -0.73767,0.8293 -0.57751,-0.52945 -1.107531,-1.18603 -1.6598,-1.7512 0.09661,-0.70266 0.397375,-1.36785 0.474169,-2.06936 -0.09353,-0.65659 0.33338,-1.32259 0.426427,-1.98682 0.406105,-1.65584 0.932173,-3.2986 1.04655,-5.00719 -0.103028,-0.7717 -0.239823,-1.54841 -0.304406,-2.32766 -0.353031,-0.46615 -0.601409,-0.83393 -0.615882,-1.47312 -0.09026,-0.65767 -0.255198,-1.31141 -0.302985,-1.9885 -0.303778,-0.64055 -0.774278,-1.39532 -0.521063,-2.13415 -0.06601,-1.09142 0.892604,-0.23446 1.39463,-0.1172 0.497413,0.054 0.656427,0.68116 1.194613,0.68177 0.583437,0.49925 -0.633279,0.48259 -0.126393,1.07793 0.09523,0.22933 0.638198,0.005 0.885079,0.0779 0.384637,-0.17106 1.062096,-0.9293 1.503281,-0.31061 0.162979,-0.28129 0.758,-0.65372 0.749469,-0.11645 0.302053,0.17344 0.897456,-0.45213 0.878711,0.22035 0.316619,0.94825 -1.177363,0.26009 -1.03112,1.04575 -0.434173,0.22891 -1.081305,1.20808 -0.241451,0.80891 0.217301,0.51853 0.568044,-0.29346 0.97808,-0.0118 0.847573,0.12669 0.480884,1.05117 -0.06917,1.26453 -0.154888,0.58005 -0.917696,1.01842 -0.496746,1.68502 0.300362,0.45724 -0.06022,0.90588 -0.300092,1.11167 0.109354,0.62567 0.529997,0.87974 0.968195,1.16783 0.151638,0.51223 0.803778,0.20638 1.207589,0.24852 -0.15152,-0.30413 0.264333,-1.30457 0.409493,-0.61321 0.191562,0.0904 1.162927,0.66359 1.328633,0.041 0.524393,-0.57226 0.277106,0.66503 -0.136944,0.75176 -0.222735,0.59028 0.143949,1.22034 0.212197,1.82542 -0.444249,0.39105 -0.843287,-0.5421 -1.136005,0.15394 -0.252453,-0.095 -0.893851,-0.56882 -0.799481,0.0621 0.350735,0.57596 -0.359891,1.13454 -0.323557,1.70285 -0.543349,0.1817 -0.942447,0.45902 -0.43933,0.957 0.498826,0.37313 -0.06114,1.29804 0.797534,1.37266 0.563942,0.56528 -1.234016,0.31768 -0.521854,0.98904 -0.151428,0.5774 1.017734,0.96729 0.327821,1.38447 -0.379848,-0.0699 -1.277901,0.19383 -0.748253,0.69494 0.03711,0.41236 -0.350605,0.8303 -0.538483,1.13527 -0.588682,-0.11101 -1.357455,0.12295 -1.929667,-0.31826 -0.421961,-0.20397 -0.825345,0.56686 -1.291708,0.27618 z"
       id="AAP"
       inkscape:connector-curvature="0" />
  </g>
</svg>
